<?xml version="1.0" encoding="utf-8"?>
<!-- Generator: Adobe Illustrator 19.2.1, SVG Export Plug-In . SVG Version: 6.00 Build 0)  -->
<svg version="1.1" id="layer" xmlns="http://www.w3.org/2000/svg" xmlns:xlink="http://www.w3.org/1999/xlink" x="0px" y="0px"
	 viewBox="0 0 652 652" style="enable-background:new 0 0 652 652;" xml:space="preserve">
<style type="text/css">
	.st0{fill-rule:evenodd;clip-rule:evenodd;fill:#1D74BB;}
	.st1{fill:none;stroke:#1D74BB;stroke-width:3.487;stroke-miterlimit:2.613;}
</style>
<path class="st0" d="M187.9,242.5c5-0.8,10.8-1.2,15,1.9c2.7,2,3.6,5.6,3.4,8.8c0.2,5.3-2.3,10.9-7,13.7c-4.1,2.2-9.2,2.4-13.8,2
	c-3.1-0.4-6.2-2.1-7.8-4.9C174.1,255.7,178.6,244.1,187.9,242.5"/>
<path class="st1" d="M187.9,242.5c5-0.8,10.8-1.2,15,1.9c2.7,2,3.6,5.6,3.4,8.8c0.2,5.3-2.3,10.9-7,13.7c-4.1,2.2-9.2,2.4-13.8,2
	c-3.1-0.4-6.2-2.1-7.8-4.9C174.1,255.7,178.6,244.1,187.9,242.5z"/>
<path class="st0" d="M38.3,248.4c0.3-2.8,2.8-5.4,5.8-5.3c21.7,0,43.5,0.1,65.1,0c2.4-0.2,4.9,0.8,6.1,2.9c1.6,2.8,0.2,6,0,8.8
	c-0.7,4-0.5,9.3-5.1,10.8c-15.8,0.5-31.7,0-47.5,0.2c-1.5,10-2.9,19.9-4.4,29.9c0,0.3,0.1,1.2,0.1,1.6c11.6-0.1,23.2,0,34.8-0.1
	c3.2-0.2,6.6,2.6,6.3,5.9c-0.3,3.5-1,6.9-1.6,10.4c-0.3,2.4-2.2,4.5-4.7,5c-12.9,0.3-26-0.3-38.9,0.3c-2.1,14.3-4.5,28.5-6.7,42.7
	c-0.3,2.8-2.6,5.3-5.4,5.4c-5.4,0.1-10.8,0.1-16.1,0c-3.5,0.1-6.3-3.8-5.4-7.1C26.5,322.7,32.4,285.6,38.3,248.4"/>
<path class="st1" d="M38.3,248.4c0.3-2.8,2.8-5.4,5.8-5.3c21.7,0,43.5,0.1,65.1,0c2.4-0.2,4.9,0.8,6.1,2.9c1.6,2.8,0.2,6,0,8.8
	c-0.7,4-0.5,9.3-5.1,10.8c-15.8,0.5-31.7,0-47.5,0.2c-1.5,10-2.9,19.9-4.4,29.9c0,0.3,0.1,1.2,0.1,1.6c11.6-0.1,23.2,0,34.8-0.1
	c3.2-0.2,6.6,2.6,6.3,5.9c-0.3,3.5-1,6.9-1.6,10.4c-0.3,2.4-2.2,4.5-4.7,5c-12.9,0.3-26-0.3-38.9,0.3c-2.1,14.3-4.5,28.5-6.7,42.7
	c-0.3,2.8-2.6,5.3-5.4,5.4c-5.4,0.1-10.8,0.1-16.1,0c-3.5,0.1-6.3-3.8-5.4-7.1C26.5,322.7,32.4,285.6,38.3,248.4z"/>
<path class="st0" d="M134.2,243.3c4.9-0.4,9.9-0.1,14.8-0.2c3-0.2,6.1,2.2,6.3,5.3c0,2.4-0.7,4.9-1,7.3c-4,25.3-8,50.6-12,75.8
	c-0.6,4.1-1.6,8.4-0.3,12.6c1.4,4.1,7.7,2.4,9.2,6.7c1,3.5-0.1,7.1-0.4,10.8c-0.3,4.7-5.7,5.8-9.3,6.8c-8,1.5-17.7,0.4-23.5-6.2
	c-4.2-4.8-4.4-11.6-3.6-17.7c5-32.1,10-64.2,15.1-96.3C129.9,245.9,131.7,243.7,134.2,243.3"/>
<path class="st1" d="M134.2,243.3c4.9-0.4,9.9-0.1,14.8-0.2c3-0.2,6.1,2.2,6.3,5.3c0,2.4-0.7,4.9-1,7.3c-4,25.3-8,50.6-12,75.8
	c-0.6,4.1-1.6,8.4-0.3,12.6c1.4,4.1,7.7,2.4,9.2,6.7c1,3.5-0.1,7.1-0.4,10.8c-0.3,4.7-5.7,5.8-9.3,6.8c-8,1.5-17.7,0.4-23.5-6.2
	c-4.2-4.8-4.4-11.6-3.6-17.7c5-32.1,10-64.2,15.1-96.3C129.9,245.9,131.7,243.7,134.2,243.3z"/>
<path class="st0" d="M321.4,248.4c0.3-2.8,2.8-5.3,5.7-5.3h14.3c3.6-0.1,6.5,3.8,5.7,7.1c-3.3,20.9-6.7,41.9-10,62.8
	c5-0.7,10.6-1.7,14.2-5.7c5.8-6.6,10.6-14.3,14.3-22.3c1.2-3.1,1.9-7.6,5.9-8.2c5.4-0.2,10.9,0,16.2,0c3.7,0,6.4,4.1,5.2,7.5
	c-1.4,5-3.8,9.6-6.2,14c-5.4,8.9-11.5,17.7-19.4,24.6c3.4,10.4,7.9,20.7,11.8,30.9c1.1,3.4,3.9,7.4,1.3,10.7c-2.9,4-8.4,2-12.5,2.5
	c-4.2-0.5-10.4,1.7-12.7-3.1c-4.4-10.3-8.1-20.8-12.6-31.1c-2.6,0.1-5.4,0.2-8-0.1c-0.2,0.4-0.6,1.1-0.8,1.5
	c-1.4,9.5-2.9,18.9-4.4,28.3c-0.5,2.3-2.3,4.3-4.8,4.4c-5,0.2-10.1,0.1-15.2,0.1c-2.2,0-4.2-1.4-5.1-3.3c-1-1.9-0.4-4.1-0.1-6.1
	C309.9,321.2,315.6,284.8,321.4,248.4"/>
<path class="st1" d="M321.4,248.4c0.3-2.8,2.8-5.3,5.7-5.3h14.3c3.6-0.1,6.5,3.8,5.7,7.1c-3.3,20.9-6.7,41.9-10,62.8
	c5-0.7,10.6-1.7,14.2-5.7c5.8-6.6,10.6-14.3,14.3-22.3c1.2-3.1,1.9-7.6,5.9-8.2c5.4-0.2,10.9,0,16.2,0c3.7,0,6.4,4.1,5.2,7.5
	c-1.4,5-3.8,9.6-6.2,14c-5.4,8.9-11.5,17.7-19.4,24.6c3.4,10.4,7.9,20.7,11.8,30.9c1.1,3.4,3.9,7.4,1.3,10.7c-2.9,4-8.4,2-12.5,2.5
	c-4.2-0.5-10.4,1.7-12.7-3.1c-4.4-10.3-8.1-20.8-12.6-31.1c-2.6,0.1-5.4,0.2-8-0.1c-0.2,0.4-0.6,1.1-0.8,1.5
	c-1.4,9.5-2.9,18.9-4.4,28.3c-0.5,2.3-2.3,4.3-4.8,4.4c-5,0.2-10.1,0.1-15.2,0.1c-2.2,0-4.2-1.4-5.1-3.3c-1-1.9-0.4-4.1-0.1-6.1
	C309.9,321.2,315.6,284.8,321.4,248.4z"/>
<path class="st0" d="M583.5,258.7c0.7-2.7,3.2-4.4,5.8-4.3c3.7,0.1,7.7-0.1,11.5,0.1c3.1,0.1,5.6,3.2,5.2,6.2
	c-0.6,5.4-1.9,10.7-2.3,16.1c3.7,0,7.5,0,11.2,0c3.3,0,6,3.4,5.5,6.6c-0.5,3-1.2,5.8-1.6,8.7c-0.5,2.4-2.6,4.4-4.9,4.8
	c-4.5,0.3-8.9-0.2-13.4,0.3c-1.9,12.6-4,25.3-6,37.9c-0.3,2.9-0.5,6.2,1.2,8.8c2.6,3.1,7,2,10.5,2.4c2.8,0.8,4.7,3.9,4.2,6.8
	c-0.4,3.2-0.6,6.4-1.4,9.5c-1.1,3.5-5.1,4.1-8.3,5c-8.6,2.3-18.5,2.3-26.1-2.7c-7.1-4.8-8.2-14.2-7.5-22.1c2-15.3,5.1-30.5,6.8-45.9
	c-2.7,0.1-5.8,0.5-7.8-1.9c-2.3-2.4-1.1-5.8-0.7-8.8c0.5-3.1,0.5-7.1,3.8-8.8c2.7-1,5.8-0.3,8.8-0.7
	C579.9,270.7,581.6,264.7,583.5,258.7"/>
<path class="st1" d="M583.5,258.7c0.7-2.7,3.2-4.4,5.8-4.3c3.7,0.1,7.7-0.1,11.5,0.1c3.1,0.1,5.6,3.2,5.2,6.2
	c-0.6,5.4-1.9,10.7-2.3,16.1c3.7,0,7.5,0,11.2,0c3.3,0,6,3.4,5.5,6.6c-0.5,3-1.2,5.8-1.6,8.7c-0.5,2.4-2.6,4.4-4.9,4.8
	c-4.5,0.3-8.9-0.2-13.4,0.3c-1.9,12.6-4,25.3-6,37.9c-0.3,2.9-0.5,6.2,1.2,8.8c2.6,3.1,7,2,10.5,2.4c2.8,0.8,4.7,3.9,4.2,6.8
	c-0.4,3.2-0.6,6.4-1.4,9.5c-1.1,3.5-5.1,4.1-8.3,5c-8.6,2.3-18.5,2.3-26.1-2.7c-7.1-4.8-8.2-14.2-7.5-22.1c2-15.3,5.1-30.5,6.8-45.9
	c-2.7,0.1-5.8,0.5-7.8-1.9c-2.3-2.4-1.1-5.8-0.7-8.8c0.5-3.1,0.5-7.1,3.8-8.8c2.7-1,5.8-0.3,8.8-0.7
	C579.9,270.7,581.6,264.7,583.5,258.7z"/>
<path class="st0" d="M530.2,289.3c5.9-5.9,13.1-10.9,21.3-13.3c3.6-1.6,8.2,1.4,8.1,5.4c-0.7,5.2-1.9,10.3-2.7,15.4
	c-0.4,2.5-2.5,4.7-5.1,5c-9.2,1.6-17.3,7.2-23.6,13.8c-1.6,2-4,3.8-4.3,6.6c-2,13.2-4.1,26.5-6.1,39.6c-0.3,2.8-2.8,5.6-5.7,5.4
	h-14.4c-3.3,0.2-6.2-3.2-5.8-6.5c4.2-26.2,8.3-52.2,12.4-78.3c0.2-2.7,2.1-5.2,4.8-5.5c3.5-0.2,7,0,10.6,0c2.8,0,5.4,2.5,5.4,5.4
	c0,4.1-0.4,8.2-0.4,12.3C526.9,293.2,528.3,291,530.2,289.3"/>
<path class="st1" d="M530.2,289.3c5.9-5.9,13.1-10.9,21.3-13.3c3.6-1.6,8.2,1.4,8.1,5.4c-0.7,5.2-1.9,10.3-2.7,15.4
	c-0.4,2.5-2.5,4.7-5.1,5c-9.2,1.6-17.3,7.2-23.6,13.8c-1.6,2-4,3.8-4.3,6.6c-2,13.2-4.1,26.5-6.1,39.6c-0.3,2.8-2.8,5.6-5.7,5.4
	h-14.4c-3.3,0.2-6.2-3.2-5.8-6.5c4.2-26.2,8.3-52.2,12.4-78.3c0.2-2.7,2.1-5.2,4.8-5.5c3.5-0.2,7,0,10.6,0c2.8,0,5.4,2.5,5.4,5.4
	c0,4.1-0.4,8.2-0.4,12.3C526.9,293.2,528.3,291,530.2,289.3z"/>
<path class="st0" d="M177.6,277.3c5.1-1,10.4-0.2,15.5-0.5c2.9-0.3,6.1,1.5,6.5,4.4c0.4,2.6-0.4,5.2-0.7,7.7
	c-3.9,24.3-7.7,48.5-11.5,72.7c-0.3,2.7-2.6,5.4-5.5,5.4c-5.1,0-10.2,0.1-15.3-0.1c-3.2-0.3-5.6-4.1-4.7-7.1
	c4-25.2,7.9-50.3,11.9-75.5C174,281.6,174.8,278.4,177.6,277.3"/>
<path class="st1" d="M177.6,277.3c5.1-1,10.4-0.2,15.5-0.5c2.9-0.3,6.1,1.5,6.5,4.4c0.4,2.6-0.4,5.2-0.7,7.7
	c-3.9,24.3-7.7,48.5-11.5,72.7c-0.3,2.7-2.6,5.4-5.5,5.4c-5.1,0-10.2,0.1-15.3-0.1c-3.2-0.3-5.6-4.1-4.7-7.1
	c4-25.2,7.9-50.3,11.9-75.5C174,281.6,174.8,278.4,177.6,277.3z"/>
<path class="st0" d="M482.9,278.5c-14.1-2.6-28.4-4.5-42.7-3.1c-12.7,1.6-25.5,7.4-33.4,17.8c-10.9,13.8-14.5,32.3-12.1,49.4
	c1.4,8.2,4.9,16.5,11.6,21.6c6.2,4.8,14.6,5.4,22.2,4.2c10.5-2,19.5-8.8,26.8-16.4c0.4,3.2-0.3,6.5-0.1,9.5c0.1,2.9,2.8,5.7,5.7,5.5
	h9.6c2.8,0,5.2-2.7,5.4-5.4c4-25.6,8.1-51,12-76.5C488.6,282,486.1,278.9,482.9,278.5 M456.4,323c-3.7,7.1-9,13.5-15,19
	c-3.4,2.8-7.8,5.7-12.3,4.8c-4.6-1-6.7-5.7-7.7-9.7c-2.4-10.5-0.2-22.1,5.7-31.2c2.7-4.3,6.9-7.5,11.8-8.8c6.9-1.7,14.1-0.9,20.8,1
	l0.3,0.4C459.2,306.7,457.6,314.8,456.4,323"/>
<path class="st1" d="M482.9,278.5c-14.1-2.6-28.4-4.5-42.7-3.1c-12.7,1.6-25.5,7.4-33.4,17.8c-10.9,13.8-14.5,32.3-12.1,49.4
	c1.4,8.2,4.9,16.5,11.6,21.6c6.2,4.8,14.6,5.4,22.2,4.2c10.5-2,19.5-8.8,26.8-16.4c0.4,3.2-0.3,6.5-0.1,9.5c0.1,2.9,2.8,5.7,5.7,5.5
	h9.6c2.8,0,5.2-2.7,5.4-5.4c4-25.6,8.1-51,12-76.5C488.6,282,486.1,278.9,482.9,278.5z M456.4,323c-3.7,7.1-9,13.5-15,19
	c-3.4,2.8-7.8,5.7-12.3,4.8c-4.6-1-6.7-5.7-7.7-9.7c-2.4-10.5-0.2-22.1,5.7-31.2c2.7-4.3,6.9-7.5,11.8-8.8c6.9-1.7,14.1-0.9,20.8,1
	l0.3,0.4C459.2,306.7,457.6,314.8,456.4,323z"/>
<path class="st0" d="M297.7,308.8c-0.1-9.4-2.7-19.3-9.3-26.4c-4.5-5-11.3-7.5-17.9-7.5c-10.9-0.3-21.2,5-29.2,12.2
	c-1.7,1.4-3,3.5-5,4.7c0-3.1,0.3-6.3,0.2-9.4c0-3-2.7-5.5-5.5-5.5h-9.6c-3,0-5.5,2.7-5.6,5.5c-6,37.7-12,75.4-18,113.2
	c-0.9,3.5,2.2,7.1,5.8,7c5.3-0.1,10.6,0.4,15.9-0.4c4.1-1.1,4.1-5.9,4.7-9.4c1.5-8.3,2.5-16.6,3.5-25c18.6,3.6,40.2,1.1,54-12.9
	C293,342.5,298.3,325.4,297.7,308.8 M271.3,318.3c-0.6,8.7-3.7,17.4-9.7,23.8c-7.8,7.5-19.7,6.4-29.3,3.9c-0.2-0.3-0.5-0.8-0.6-1.1
	c1.5-8.2,2.3-16.5,4.1-24.6c5.3-8.7,11.7-17.4,20.8-22.2c3.4-1.6,8-1.2,10.5,1.9C271.3,305,271.7,312,271.3,318.3"/>
<path class="st1" d="M297.7,308.8c-0.1-9.4-2.7-19.3-9.3-26.4c-4.5-5-11.3-7.5-17.9-7.5c-10.9-0.3-21.2,5-29.2,12.2
	c-1.7,1.4-3,3.5-5,4.7c0-3.1,0.3-6.3,0.2-9.4c0-3-2.7-5.5-5.5-5.5h-9.6c-3,0-5.5,2.7-5.6,5.5c-6,37.7-12,75.4-18,113.2
	c-0.9,3.5,2.2,7.1,5.8,7c5.3-0.1,10.6,0.4,15.9-0.4c4.1-1.1,4.1-5.9,4.7-9.4c1.5-8.3,2.5-16.6,3.5-25c18.6,3.6,40.2,1.1,54-12.9
	C293,342.5,298.3,325.4,297.7,308.8z M271.3,318.3c-0.6,8.7-3.7,17.4-9.7,23.8c-7.8,7.5-19.7,6.4-29.3,3.9c-0.2-0.3-0.5-0.8-0.6-1.1
	c1.5-8.2,2.3-16.5,4.1-24.6c5.3-8.7,11.7-17.4,20.8-22.2c3.4-1.6,8-1.2,10.5,1.9C271.3,305,271.7,312,271.3,318.3z"/>
</svg>
